<?xml version="1.0" encoding="UTF-8"?>
<svg id="Layer_1" data-name="Layer 1" xmlns="http://www.w3.org/2000/svg" viewBox="0 0 1533 665.9">
  <defs>
    <style>
      .cls-1 {
        fill: #ffffff;
      }

      .cls-2, .cls-3, .cls-4, .cls-5 {
        fill: #ffffff;
      }

      .cls-3 {
        stroke-width: .8px;
      }

      .cls-3, .cls-4, .cls-6, .cls-7, .cls-5, .cls-8, .cls-9 {
        stroke: #ffffff;
      }

      .cls-3, .cls-4, .cls-7, .cls-5, .cls-8 {
        stroke-miterlimit: 10;
      }

      .cls-6, .cls-7, .cls-8, .cls-9 {
        fill: none;
        stroke-width: 14px;
      }

      .cls-6, .cls-8, .cls-9 {
        stroke-linecap: round;
      }

      .cls-6, .cls-9 {
        stroke-linejoin: round;
      }

      .cls-5 {
        stroke-width: 2px;
      }

      .cls-9 {
        stroke-dasharray: 19.7 23.6;
      }
    </style>
  </defs>
  <path class="cls-3" d="M222.4,217.1c-.9,4.1-9.1,3.3-10.7,0-3.9-8.2-9-14.6-15.5-20.9-9.8-9.4-16-21.3-16.4-35.1l-.6-23.1c-3.6.5-7.6.5-10.1-1.9s-2.5-6.2-1.3-9.9c-4.9-1.9-6.4-6.4-5.4-11.1-5.2-7-10.6-14.4-14.4-22.2l-.2-43.1c0-3,1.5-5,5-5.5V5.5c0-2.8,2.6-5.1,5.3-5.1h53c2.7,0,5,2.4,5,5.1v39c3.1.2,4.7,2,4.7,4.4v44.4c0,0-14.2,21.9-14.2,21.9,1.2,4.7-.4,9.3-5.3,10.9.9,3.4.9,7.5-.8,9.5-2.5,2.9-6,3-10.5,2.4l.2,20.4c.1,13.2,6.1,23.4,15.2,32.2,7.4,7.2,14.2,15.6,17,26.5ZM191.2,7.4v15.1c.1.3-.3,1.8-.6,1.7l-1.5-.2V7.4s-7.9,0-7.9,0v14.9c0,.6-.9,2.6-1.1,2.2s-1-1.6-1-2.2l-.2-14.8h-7.7c0-.1-.1,16.5-.1,16.5l-1.5.2c-.3,0-.7-1.4-.7-1.7V7.4s-8.9,0-8.9,0v37.1s11.2,0,11.2,0c-.3-3.7-.4-7.1,1.3-10.1l22-.2c1.4,0,3.6,2.4,3.6,3.8v6.6c0,0,11.4,0,11.4,0V7.4s-7.9,0-7.9,0l-.4,16.8-1.8.4-.4-17.2h-7.6ZM191,63.7l.2-22.8h-13.6s0,21.8,0,21.8c0,3.8,2.9,6,6.2,6.4s7.2-1.3,7.2-5.3ZM213.8,51.3h-16s-.2,13-.2,13c-.1,7.1-6.8,11.5-13.1,11.6-6,0-13.1-3.8-13.2-10.7l-.3-13.9h-16s.1,40.8.1,40.8l10.9,16.7h37c0,0,10.8-16.8,10.8-16.8v-40.7ZM197.7,120.5c1.1,0,3.5-1.4,3.1-2.3l-1.4-2.9h-29.7c-.5.8-1.2,2.7-1.3,3.7s2.1,1.5,3.1,1.5h26.1ZM195.4,131.8c0-1.4-.2-3.5-.7-4.7l-20,.2c-1.2,0-1.6,4.5-.4,4.5h21.1Z"/>
  <g>
    <path class="cls-2" d="M72.2,81.4L11.6,7.3l-4.2,95.3,37.5,107.3h23.7c0,.1-35.3-101.9-35.3-101.9l7.9-12.1,13.1,4.5,38.7,109.5-9.4.2,34.2.2-45.6-128.8ZM57.5,95.7l-18.5-5.6-9.9,15.1-13.5-2.9,1.5-45c7.7,1.2,14.3-1.6,19.7-6.5l28.2,34.3-7.6,10.7Z"/>
    <polygon class="cls-2" points="68.7 210.4 83.6 210.1 68.6 210 68.7 210.4"/>
  </g>
  <path class="cls-7" d="M395.8,560.4l-166.8,94.8c-8.8,5-19.5,5-28.2,0l-166.8-94.8c-8.9-5.1-14.5-14.6-14.5-24.8v-231.2h390.8v231.2c0,10.3-5.5,19.8-14.5,24.8Z"/>
  <g>
    <line class="cls-6" x1="377.1" y1="330.8" x2="377.1" y2="340.8"/>
    <path class="cls-9" d="M377.1,364.4v159c0,4.3-1.1,8.4-3.2,12-2.1,3.6-5.1,6.6-8.8,8.7l-69.5,39.5-69.5,39.5c-3.6,2.1-7.7,3.1-11.8,3.1s-8.1-1-11.8-3.1l-69.5-39.5-69.5-39.5c-3.7-2.1-6.7-5.1-8.8-8.7s-3.2-7.7-3.2-12v-170.8"/>
    <line class="cls-6" x1="51.4" y1="340.8" x2="51.4" y2="330.8"/>
  </g>
  <path class="cls-5" d="M392.1,219.3h-132.6l32.7-109.8c8.9-29.8,41.7-46.5,73.1-37.2l7.8,2.3c31.4,9.3,49.8,41.2,40.9,71.1l-21.9,73.6ZM271.5,210.3h113.8l20-67.1c7.5-25.1-8.2-52-34.8-59.9l-7.8-2.3c-26.7-7.9-54.4,6-61.9,31.1l-29.2,98.2Z"/>
  <path class="cls-4" d="M348.3,160.7c-1.6,0-3.2-.2-4.9-.7-4.2-1.2-7.7-4-9.8-7.7-2.2-3.8-2.7-8.1-1.5-12.2l6.2-20.9c1.2-4.1,4-7.4,7.9-9.4,3.8-1.9,8.2-2.3,12.4-1.1,4.2,1.2,7.7,4,9.8,7.7,2.2,3.8,2.7,8.1,1.5,12.2l-6.2,20.9c-2,6.8-8.4,11.2-15.5,11.2ZM353.8,117c-1.2,0-2.4.3-3.4.8-1.7.8-2.9,2.2-3.4,4l-6.2,20.9c-.5,1.7-.3,3.5.7,5.1,1,1.7,2.6,3,4.6,3.6,4,1.2,8.1-.8,9.1-4.4l6.2-20.9c.5-1.7.3-3.5-.7-5.1-1-1.7-2.6-3-4.6-3.6-.8-.2-1.6-.3-2.3-.3Z"/>
  <path class="cls-4" d="M493.5,131c-.2,0-.5,0-.7,0-12.6-2-24.2-9.6-31-20.4-5.1-8.1-10-21.7-4.4-40.6,9.2-31.1-6.3-51.1-24.7-56.6-25.9-7.7-44.6,12.2-51.1,34l-19.9,66.9c-.7,2.4-3.2,3.7-5.6,3-2.4-.7-3.7-3.2-3-5.6l19.9-66.9c11-37,40-46.7,62.3-40.1,12.3,3.7,22.3,11.9,28.2,23.4,6.5,12.7,7.4,28,2.6,44.4-4.6,15.6-.7,26.7,3.4,33.2,5.4,8.6,14.7,14.7,24.8,16.3,2.5.4,4.1,2.7,3.7,5.1-.3,2.2-2.3,3.8-4.4,3.8Z"/>
  <path class="cls-4" d="M332.1,202.8c-.4,0-.9,0-1.3-.2-2.4-.7-3.7-3.2-3-5.6l12.7-42.7c.7-2.4,3.2-3.7,5.6-3,2.4.7,3.7,3.2,3,5.6l-12.7,42.7c-.6,2-2.4,3.2-4.3,3.2Z"/>
  <path class="cls-8" d="M238.1,215.7h163.3c2.9,0,5.8.6,8.3,1.7,2.6,1.1,4.9,2.6,6.8,4.6,1.9,1.9,3.5,4.2,4.6,6.8,1.1,2.6,1.7,5.4,1.7,8.3v46.8c0,2.9-.6,5.8-1.7,8.3-1.1,2.6-2.6,4.9-4.6,6.8-1.9,1.9-4.2,3.5-6.8,4.6s-5.4,1.7-8.3,1.7H28.3c-2.9,0-5.8-.6-8.3-1.7s-4.9-2.6-6.8-4.6-3.5-4.2-4.6-6.8-1.7-5.4-1.7-8.3v-46.8c0-2.9.6-5.8,1.7-8.3s2.6-4.9,4.6-6.8,4.2-3.5,6.8-4.6,5.4-1.7,8.3-1.7h163.3"/>
  <g>
    <path class="cls-2" d="M1349.2,354.9h-61.2c-17.8,0-29.5-15-29.4-31.4l.2-91.2c0-18.4,13.4-32.4,32.3-32.4h56.4c18.6,0,31.8,14.3,31.8,32.4v91.1c0,16.3-11.4,31.5-30.1,31.5ZM1348.9,328.2l-.5-101.1h-58.5s-.5,100.7-.5,100.7l59.4.5Z"/>
    <path class="cls-2" d="M881.2,328.2h81.9s-.4,26.9-.4,26.9l-84.5-.4c-15.1,0-28.2-13.6-28.1-28.3v-96.8c.2-17,14.5-29.4,30.9-29.5l57.3-.3c7.6,0,19.5,4.9,23.5,10.2,11.7,15.2,8.4,60.3-1.4,63.8l-79.6,28.1.5,26.4ZM938.6,253.7l-.7-26.7h-57.3s-.3,46-.3,46l58.3-19.3Z"/>
    <path class="cls-2" d="M592.8,328.1l81.3.4-.3,26.6-83.6-.2c-18.5,0-30.1-15.2-30.1-32.2l.2-92.8c0-15.9,12.9-29.9,29.8-29.8l62.7.3c13.8,0,25.6,12.7,25.9,25.3l.7,29.6c.2,8.4-7.4,19.4-15.8,22.2l-71.4,23.9c-1.2,7.1-.8,17,.6,26.7ZM649.5,253.8l-1.2-26.7h-56.9c0,.1,0,45.9,0,45.9l58-19.2Z"/>
    <path class="cls-2" d="M1502.4,227.9l-58.3-.2v127s-31.2,0-31.2,0l.3-125.2c0-16.6,14.9-29.4,30.9-29.4h56.7c18.3-.2,32.2,14.4,32.2,32.2v122.4c-.1,0-30.7,0-30.7,0v-126.7Z"/>
    <path class="cls-2" d="M1090.5,227.3l-57.8-.4-.5,127.7-30.4-.2v-122c0-16.4,11.7-31.8,29.8-31.8h59.3c17.9-.1,30.3,15.7,30.3,32.2l.2,122h-30.8s0-127.3,0-127.3Z"/>
    <path class="cls-2" d="M788.8,354.9l-79.5.2v-26.6s76.8-.6,76.8-.6c4.8-2.8,5.9-20,.8-22.6l-64.2-33.2c-13.9-7.2-14.3-21.8-14.6-36.8-.4-15.6,7.3-34.4,26.5-34.7l81.7-.9v27.1c-.1,0-74.4.5-74.4.5-4,4-5,20-.2,22.5l59.7,30.9c15.2,7.9,18.6,19.8,19.2,36.5.6,19.3-8.3,37.6-31.8,37.7Z"/>
    <path class="cls-2" d="M1187.1,226.8v100.4c0,0,43.4,1.5,43.4,1.5l.3,26.3-45.9-.6c-16.6-.2-28.8-15.1-28.8-31v-171.8c0,0,31-1.6,31-1.6l-.3,49.9,43.4.2.7,26.8h-43.8Z"/>
  </g>
  <g>
    <path class="cls-1" d="M600.4,467.9c0,4.9-1.9,9.1-5.7,12.5-3.8,3.4-8.8,5.2-15,5.2s-12-1.4-16.1-4.2l3.4-8.4c2.8,2.2,6.4,3.3,10.9,3.3s4.8-.8,6.5-2.3c1.7-1.5,2.5-3.5,2.5-5.9s-.6-4.4-1.9-5.8c-1.3-1.4-3.5-2.7-6.6-3.8-8.8-3.4-13.3-8.8-13.3-16.3s1.7-8.7,5.1-12c3.4-3.2,7.8-4.8,13.3-4.8s10.9,1.4,15.1,4.1l-3.2,7.7c-2.7-2.2-5.7-3.2-9.3-3.2s-4.6.7-6.1,2.2-2.2,3.3-2.2,5.4c0,3.8,2.9,6.9,8.6,9.2,9.3,3.7,13.9,9.4,13.9,17.1Z"/>
    <path class="cls-1" d="M639.4,484c-1.7.8-4,1.2-6.7,1.2-5.3,0-9.4-1.6-12.3-4.8-2.4-2.8-3.7-6.4-3.7-10.9v-34.6h-6.5v-8.4h6.5v-12.9l13.1-3.7v16.6h9.5v8.4h-9.5v33.9c0,5,2.1,7.5,6.4,7.5s1.9-.1,3.1-.4v8.2Z"/>
    <path class="cls-1" d="M697.4,481.1c-5.8,3.1-13.3,4.6-22.3,4.6-15,0-22.5-6.5-22.5-19.6v-39.7h13.1v40.5c0,6.5,3.3,9.8,9.8,9.8s6.5-.6,8.7-1.9v-48.4h13.1v54.6Z"/>
    <path class="cls-1" d="M758.8,481.4c-5,2.8-11.8,4.2-20.3,4.2s-15.2-2.6-19.9-7.8c-4.7-5.2-7.1-12.4-7.1-21.7s2.4-16.8,7.1-22.3c4.6-5.3,10.7-8,18.3-8s6.3.4,8.7,1.1v-27.2h13.1v81.6ZM745.7,475.9v-41.8c-1.7-.5-3.7-.8-5.8-.8-10.2,0-15.3,7.4-15.3,22.1s4.8,21.8,14.3,21.8,5.4-.4,6.8-1.3Z"/>
    <path class="cls-1" d="M789.1,410c0,1.8-.7,3.3-2.1,4.6-1.4,1.3-3.1,1.9-5.1,1.9s-3.7-.6-5.1-1.9c-1.4-1.3-2.1-2.8-2.1-4.6s.7-3.3,2.1-4.6c1.4-1.3,3.1-1.9,5.1-1.9s3.7.6,5.1,1.9c1.4,1.3,2.1,2.8,2.1,4.7ZM788.4,484.6h-13.1v-58.1h13.1v58.1Z"/>
    <path class="cls-1" d="M851.2,455.6c0,9-2,16.1-5.9,21.4-4.3,5.7-10.4,8.6-18.2,8.6s-13.9-2.9-18.2-8.6c-4-5.3-5.9-12.5-5.9-21.4s2-16.2,5.9-21.5c4.3-5.7,10.4-8.6,18.2-8.6s14,2.9,18.2,8.6c3.9,5.3,5.9,12.5,5.9,21.5ZM838.1,455.5c0-14.5-3.7-21.8-11.1-21.8s-11.1,7.3-11.1,21.8,3.7,21.2,11.1,21.2,11.1-7.1,11.1-21.2Z"/>
    <path class="cls-1" d="M910.8,410c0,1.8-.7,3.3-2.1,4.6-1.4,1.3-3.1,1.9-5.1,1.9s-3.7-.6-5.1-1.9c-1.4-1.3-2.1-2.8-2.1-4.6s.7-3.3,2.1-4.6c1.4-1.3,3.1-1.9,5.1-1.9s3.7.6,5.1,1.9c1.4,1.3,2.1,2.8,2.1,4.7ZM910.2,484.6h-13.1v-58.1h13.1v58.1Z"/>
    <path class="cls-1" d="M972.6,484.6h-13.1v-41.2c0-6.5-3.5-9.7-10.5-9.7s-6.3.5-9,1.6v49.2h-13.1v-54.9c6-2.8,13.5-4.2,22.7-4.2s14.1,1.8,18,5.4c3.4,3,5.1,7.1,5.1,12.4v41.4Z"/>
    <path class="cls-1" d="M1014.3,484c-1.7.8-4,1.2-6.7,1.2-5.3,0-9.4-1.6-12.3-4.8-2.4-2.8-3.7-6.4-3.7-10.9v-34.6h-6.5v-8.4h6.5v-12.9l13.1-3.7v16.6h9.5v8.4h-9.5v33.9c0,5,2.1,7.5,6.4,7.5s1.9-.1,3.1-.4v8.2Z"/>
    <path class="cls-1" d="M1072.2,455.1l-35.6,5.2c1.1,10.8,6.4,16.2,15.8,16.2s10.5-1.1,14.7-3.2l3.1,8.3c-5,2.7-11.3,4.1-19.2,4.1s-14.9-2.6-19.7-7.9c-4.8-5.2-7.2-12.7-7.2-22.4s2.2-16.8,6.6-22c4.4-5.3,10.5-7.9,18.2-7.9s13.6,2.5,17.7,7.6c4,5.1,5.9,12.4,5.6,22.1ZM1060,450c0-11-3.8-16.5-11.4-16.5s-7.1,1.6-9.3,4.8c-2.4,3.5-3.5,8.6-3.3,15.3l24-3.7Z"/>
    <path class="cls-1" d="M1114.4,425.5l-2.6,9.6c-1.9-.6-4-1-6-1s-4.6.5-6.2,1.4v49h-13.1v-54.9c6.4-3.1,15.7-4.5,28-4.1Z"/>
    <path class="cls-1" d="M1165.1,481.4c-5.2,2.8-12.2,4.2-21,4.2-15.8,0-23.7-5.9-23.7-17.7s3.2-12.3,9.6-15.8c5-2.7,12.6-4.6,22.8-5.6v-3.1c0-6.4-3.8-9.6-11.5-9.6s-9.7,1.2-14.5,3.6l-3-7.5c6-2.9,12.7-4.4,19.9-4.4,14.3,0,21.4,6.7,21.4,20v36ZM1152.8,476.7v-23.9c-6.9.9-11.8,2.2-14.7,4-3.6,2.2-5.4,5.8-5.4,10.8,0,7.2,4.1,10.8,12.2,10.8s5.7-.5,7.9-1.6Z"/>
    <path class="cls-1" d="M1229,484.6h-14.9l-19.5-29.6v29.6h-13v-84.7h13v52.9l18.5-26.3h13.5l-20,26.6,22.4,31.5Z"/>
    <path class="cls-1" d="M1264.3,484c-1.7.8-4,1.2-6.7,1.2-5.3,0-9.4-1.6-12.3-4.8-2.4-2.8-3.7-6.4-3.7-10.9v-34.6h-6.5v-8.4h6.5v-12.9l13.1-3.7v16.6h9.5v8.4h-9.5v33.9c0,5,2.1,7.5,6.4,7.5s1.9-.1,3.1-.4v8.2Z"/>
    <path class="cls-1" d="M1322.8,426.5l-26.5,81.2h-13.9l9.5-23.2-19.2-58.1h14l10,37.6c.7,2.8,1.1,5.6,1.2,8.3h.2c.4-2.1.9-4.8,1.6-8.3l10.8-37.6h12.3Z"/>
    <path class="cls-1" d="M1409,426.5l-16.2,58.1h-11.9l-10-36.4c-.6-2.4-1-4.8-1.2-7.4h-.2c-.2,1.8-.6,4.3-1.3,7.4l-10.2,36.4h-11.9l-16.2-58.1h13.3l8.5,37.6c.6,2.7,1,5.3,1.1,7.7h.2c.4-1.9.9-4.5,1.5-7.7l10.2-37.6h11l9.8,37.6c.6,2.3,1,4.8,1.4,7.7h.2c0-1.4.5-4,1.2-7.8l8.9-37.5h11.6Z"/>
    <path class="cls-1" d="M1466.8,484.6h-13.1v-41.2c0-6.5-3.5-9.7-10.5-9.7s-6.3.5-9,1.6v49.2h-13.1v-54.9c6-2.8,13.5-4.2,22.7-4.2s14.1,1.8,18,5.4c3.4,3,5.1,7.1,5.1,12.4v41.4Z"/>
    <path class="cls-1" d="M1528.9,455.1l-35.6,5.2c1.1,10.8,6.4,16.2,15.8,16.2s10.5-1.1,14.7-3.2l3.1,8.3c-5,2.7-11.3,4.1-19.2,4.1s-14.9-2.6-19.7-7.9c-4.8-5.2-7.2-12.7-7.2-22.4s2.2-16.8,6.6-22c4.4-5.3,10.5-7.9,18.2-7.9s13.6,2.5,17.7,7.6c4,5.1,5.9,12.4,5.6,22.1ZM1516.6,450c0-11-3.8-16.5-11.4-16.5s-7.1,1.6-9.3,4.8c-2.4,3.5-3.5,8.6-3.3,15.3l24-3.7Z"/>
  </g>
</svg>